<?xml version="1.0" encoding="UTF-8" standalone="no"?>
<!-- Created with Inkscape (http://www.inkscape.org/) -->

<svg
   version="1.1"
   id="svg1"
   width="330"
   height="650"
   viewBox="240 230 330 650"
   sodipodi:docname="logo.pdf"
   xmlns:inkscape="http://www.inkscape.org/namespaces/inkscape"
   xmlns:sodipodi="http://sodipodi.sourceforge.net/DTD/sodipodi-0.dtd"
   xmlns="http://www.w3.org/2000/svg"
   xmlns:svg="http://www.w3.org/2000/svg">
  <defs
     id="defs1">
    <clipPath
       clipPathUnits="userSpaceOnUse"
       id="clipPath2">
      <path
         d="M 0,841.89 H 595.276 V 0 H 0 Z"
         transform="translate(-543.86662,-424.19101)"
         id="path2" />
    </clipPath>
    <clipPath
       clipPathUnits="userSpaceOnUse"
       id="clipPath4">
      <path
         d="M 0,841.89 H 595.276 V 0 H 0 Z"
         transform="translate(-375.39591,-574.71311)"
         id="path4" />
    </clipPath>
    <clipPath
       clipPathUnits="userSpaceOnUse"
       id="clipPath26">
      <path
         d="M 0,841.89 H 595.276 V 0 H 0 Z"
         transform="translate(-339.66941,-445.64181)"
         id="path26" />
    </clipPath>
    <clipPath
       clipPathUnits="userSpaceOnUse"
       id="clipPath28">
      <path
         d="M 0,841.89 H 595.276 V 0 H 0 Z"
         transform="translate(-363.37291,-592.46981)"
         id="path28" />
    </clipPath>
    <clipPath
       clipPathUnits="userSpaceOnUse"
       id="clipPath30">
      <path
         d="M 0,841.89 H 595.276 V 0 H 0 Z"
         transform="translate(-372.64111,-641.24501)"
         id="path30" />
    </clipPath>
    <clipPath
       clipPathUnits="userSpaceOnUse"
       id="clipPath32">
      <path
         d="M 0,841.89 H 595.276 V 0 H 0 Z"
         transform="translate(-322.84461,-608.03482)"
         id="path32" />
    </clipPath>
    <clipPath
       clipPathUnits="userSpaceOnUse"
       id="clipPath34">
      <path
         d="M 0,841.89 H 595.276 V 0 H 0 Z"
         transform="translate(-277.15381,-604.32452)"
         id="path34" />
    </clipPath>
    <clipPath
       clipPathUnits="userSpaceOnUse"
       id="clipPath36">
      <path
         d="M 0,841.89 H 595.276 V 0 H 0 Z"
         transform="translate(-251.07561,-593.15471)"
         id="path36" />
    </clipPath>
    <clipPath
       clipPathUnits="userSpaceOnUse"
       id="clipPath38">
      <path
         d="M 0,841.89 H 595.276 V 0 H 0 Z"
         transform="translate(-219.92791,-575.98972)"
         id="path38" />
    </clipPath>
    <clipPath
       clipPathUnits="userSpaceOnUse"
       id="clipPath40">
      <path
         d="M 0,841.89 H 595.276 V 0 H 0 Z"
         transform="translate(-345.52361,-605.59222)"
         id="path40" />
    </clipPath>
  </defs>
  <sodipodi:namedview
     id="namedview1"
     pagecolor="#ffffff"
     bordercolor="#000000"
     borderopacity="0.25"
     inkscape:showpageshadow="2"
     inkscape:pageopacity="0.0"
     inkscape:pagecheckerboard="0"
     inkscape:deskcolor="#d1d1d1">
    <inkscape:page
       x="0"
       y="0"
       inkscape:label="1"
       id="page1"
       width="793.70135"
       height="1122.52"
       margin="266.98001 259.85333 252.10133 254.46266"
       bleed="0" />
  </sodipodi:namedview>
  <g
     id="layer-MC0"
     inkscape:groupmode="layer"
     inkscape:label="Layer 7"
     style="display:none">
    <path
       id="path1"
       d="m 0,0 c 0,141.552 -114.751,256.303 -256.303,256.303 -141.552,0 -256.303,-114.751 -256.303,-256.303 0,-141.552 114.751,-256.303 256.303,-256.303 C -114.751,-256.303 0,-141.552 0,0"
       style="fill:#ef3320;fill-opacity:1;fill-rule:nonzero;stroke:none"
       transform="matrix(1.3333333,0,0,-1.3333333,725.15547,556.932)"
       clip-path="url(#clipPath2)" />
  </g>
  <g
     id="layer-MC1"
     inkscape:groupmode="layer"
     inkscape:label="Layer 2">
    <path
       id="path3"
       d="m 0,0 c 0.669,-1.011 13.557,-21.014 7.059,-37.787 -1.593,-4.114 -8.535,-22.842 -10.63,-22.926 -3.686,-0.147 -3.472,9.372 -13.125,20.543 -10.153,9.792 -18.188,13.773 -32.369,16.467 -20.533,4.648 -43.125,1.769 -62.054,-7.205 -6.242,-3.132 -16.425,-8.383 -23.437,-18.879 -3.565,-5.336 -4.573,-9.411 -4.848,-12.511 -0.261,-2.938 -0.781,-8.803 2.042,-11.574 5.081,-4.988 16.614,4.446 37.277,9.276 7.861,1.838 26.112,5.981 46.723,0.256 5.578,-1.55 16.046,-5.113 26.574,-13.336 6.775,-5.292 14.963,-11.687 16.575,-21.898 0.395,-2.503 -0.592,-6.79 -2.298,-15.32 -3.574,-17.872 -10.365,-16.371 -14.298,-7.404 -3.725,8.495 -10.493,12.746 -14.297,15.064 -24.097,14.683 -70.958,11.309 -86.724,-14.298 -5.191,-8.432 -5.863,-17.41 -5.957,-18.879 -0.811,-12.614 5.081,-22.217 10.213,-31.419 16.46,-29.515 28.31,-36.194 46.467,-62.383 11.026,-15.903 15.439,-29.129 14.554,-44.085 -0.763,-12.878 -8.73,-32.244 -27.319,-38.298 -14.269,-4.646 -29.134,0.486 -38.298,8.681 0,0 -11.892,10.634 -12.766,27.83 -0.075,1.477 -0.102,4.523 1.276,5.106 2.022,0.857 4.357,-4.732 9.703,-6.383 6.228,-1.922 12.637,2.706 13.787,3.575 6.441,4.868 7.635,12.539 8.425,17.617 1.115,7.164 -0.09,12.813 -1.276,18.127 -2.151,9.637 -5.662,16.519 -6.894,18.894 -11.307,21.801 -26.252,43.178 -36.511,58.213 -8.983,13.165 -13.475,19.748 -14.553,21.702 -6.435,11.667 -20.273,37.492 -17.106,67.915 1.195,11.485 2.207,17.195 5.106,25.021 7.742,20.899 12.118,29.271 13.372,35.66 1.261,6.425 2.713,9.429 -0.691,15.319 -3.168,5.48 4.359,3.713 39.83,15.319 15.713,5.141 23.57,7.712 31.659,8.999 C -89.507,25.843 -23.6,35.636 0,0"
       style="fill:#100f0d;fill-opacity:1;fill-rule:nonzero;stroke:none"
       transform="matrix(1.3333333,0,0,-1.3333333,500.52787,356.23587)"
       clip-path="url(#clipPath4)" />
  </g>
  <g
     id="layer-MC2"
     inkscape:groupmode="layer"
     inkscape:label="Layer 10"
     style="display:none">
    <path
       id="path5"
       d="m 18.797384,-5.9886219 c 0.527344,-2.0976562 -0.84375,-5.3554691 -2.835937,-6.3984371 -0.738281,-6.621094 -0.949219,-13.335938 -0.84375,-20.0625 3.574219,-0.105469 7.242187,-0.410157 10.816406,-0.621094 1.371094,-0.105469 2.625,-0.316406 3.890625,-0.105469 0.9375,0.210938 2.519531,-0.632812 3.035156,-1.476562 1.6875,-2.308594 1.792969,-4.722657 0.527344,-7.242188 -0.726562,-1.265625 -2.625,-1.886719 -4.089844,-1.78125 -4.617187,0.105469 -9.246093,0.621094 -13.96875,0.832031 0.316407,-6.292968 0.84375,-12.597656 1.160157,-18.996093 0.832031,0 1.570312,0 2.308593,0.105468 6.292969,0 12.597657,-0.210937 18.691407,0.515625 1.148437,0.210938 2.519531,-0.316406 3.152343,-1.148437 1.886719,-2.414063 1.992188,-5.566406 0.304688,-7.980469 -0.515625,-0.738281 -1.464844,-1.160156 -2.203125,-1.265625 -6.609375,-0.832031 -13.230469,-0.527344 -19.839844,-0.621094 -1.476562,-0.105468 -2.941406,-0.105468 -4.417969,-0.105468 -0.410156,-0.316407 -0.9375,-0.527344 -1.464843,-0.527344 -0.421875,-0.105469 -0.949219,0 -1.464844,0.210937 -0.316406,0 -0.632813,-0.105468 -0.949219,-0.105468 -0.8437499,-0.210938 -1.8867186,-0.421875 -2.7304686,-0.105469 -2.625,0.726562 -3.5742188,4.300781 -3.046875,6.925781 0.421875,2.097656 1.8867187,3.574219 3.7851562,3.679688 h 0.1054688 c -0.2109375,3.667968 -0.5273438,7.347656 -0.84375,11.027343 -0.1054688,2.824219 -0.3164063,5.554688 -0.421875,8.390625 -1.1484375,0 -2.7304688,1.476563 -3.1523438,2.625 -1.2539062,3.046875 -0.7265625,6.9375 2.4140625,7.769532 0.2109375,0 0.3164063,0.105468 0.5273438,0.105468 v 5.25 c 0.1054687,5.671875 0.3164062,11.449219 1.0546875,17.1210941 0.5273437,2.8359375 1.4648437,7.9804688 4.7226566,8.9179688 l 1.570312,0.31640623 c 2.320313,0.2109375 3.679688,-2.94140623 4.207031,-5.25000003 z M 61.954611,-25.195653 c 6.292969,-6.832031 7.136719,-17.753906 2.097656,-25.523438 -1.792969,-2.835937 -5.144531,-5.460937 -8.613281,-5.460937 -0.632813,0 -1.148438,0.105469 -1.570313,0.316406 -0.316406,0.105469 -0.421875,0 -0.527343,-0.105469 -0.527344,-0.210937 -1.054688,-0.316406 -1.582032,-0.316406 -4.722656,0 -9.445312,5.460938 -10.910156,9.457031 -1.371094,3.5625 -1.6875,7.664063 -1.371094,11.4375 0.421875,7.042969 4.101563,15.023438 12.1875,15.023438 3.773438,0 7.769532,-1.992188 10.289063,-4.828125 z m -11.871094,-6.09375 c -2.097656,-1.265625 -2.730469,-6.09375 -2.625,-8.613281 0,-1.253907 0.105469,-2.730469 0.738281,-3.878907 0.527344,-0.84375 1.359375,-1.582031 2.203125,-2.003906 0.84375,0.421875 1.675782,0.84375 2.519532,0.949219 0.84375,0.105469 1.570312,-0.316406 2.203125,-0.738281 0.210937,-0.210938 0.738281,0.105468 1.054687,0.210937 1.464844,0.632813 2.414063,2.308594 2.941406,3.890625 1.253907,4.089844 -1.054687,8.917969 -5.144531,10.394531 -0.527344,0.210938 -1.160156,0.316407 -1.792969,0.316407 -0.726562,0 -1.464843,-0.210938 -2.097656,-0.527344 z m 43.895508,6.09375 c 6.292965,-6.832031 7.136715,-17.753906 2.097656,-25.523438 -1.792969,-2.835937 -5.144531,-5.460937 -8.613281,-5.460937 -0.632813,0 -1.148438,0.105469 -1.570313,0.316406 -0.316406,0.105469 -0.421875,0 -0.527343,-0.105469 -0.527344,-0.210937 -1.054688,-0.316406 -1.582032,-0.316406 -4.722656,0 -9.445312,5.460938 -10.910156,9.457031 -1.371094,3.5625 -1.6875,7.664063 -1.371094,11.4375 0.421875,7.042969 4.101563,15.023438 12.1875,15.023438 3.773438,0 7.769532,-1.992188 10.289063,-4.828125 z m -11.871094,-6.09375 c -2.097656,-1.265625 -2.730469,-6.09375 -2.625,-8.613281 0,-1.253907 0.105469,-2.730469 0.738281,-3.878907 0.527344,-0.84375 1.359375,-1.582031 2.203125,-2.003906 0.84375,0.421875 1.675782,0.84375 2.519532,0.949219 0.84375,0.105469 1.570312,-0.316406 2.203125,-0.738281 0.210937,-0.210938 0.738281,0.105468 1.054687,0.210937 1.464844,0.632813 2.414063,2.308594 2.941406,3.890625 1.253907,4.089844 -1.054687,8.917969 -5.144531,10.394531 -0.527344,0.210938 -1.160156,0.316407 -1.792969,0.316407 -0.726562,0 -1.464843,-0.210938 -2.097656,-0.527344 z M 120.0093,7.6637219 c 1.05469,-1.2539063 2.10937,-5.25 1.79297,-6.82031252 -0.31641,-1.4765625 -1.05469,-3.04687498 -2.09766,-4.10156248 -0.94922,-11.1328129 -1.05469,-22.3593749 -1.05469,-33.4921879 0,-1.464843 0,-2.941406 0.10547,-4.40625 l 3.46875,-0.632812 c 2.73047,-0.421875 5.55469,-0.527344 8.39063,-0.210938 1.16015,0.210938 2.51953,-0.527343 3.25781,-1.464843 1.99219,-2.425782 1.78125,-6.09375 -0.31641,-8.191407 -0.9375,-0.84375 -4.30078,-1.054687 -5.5664,-1.054687 -3.14063,0 -6.1875,0.421875 -9.23438,1.054687 l 0.31641,-14.496093 c 0,-0.105469 0.10547,-0.316407 0.10547,-0.421875 0.21093,-1.78125 0,-3.773438 -1.05469,-5.144532 -0.73828,-0.9375 -1.57031,-1.359375 -2.51953,-1.359375 -3.57422,0 -4.51172,3.878907 -4.51172,6.714844 l -0.31641,16.382813 c -1.99218,0.421875 -3.99609,0.738281 -6.09375,0.949218 -0.52734,-0.316406 -1.04297,-0.527343 -1.57031,-0.527343 -2.09766,0 -3.996093,2.203125 -4.20703,4.617187 -0.09375,1.78125 0.210937,4.101563 1.58203,5.355469 0.94922,0.84375 2.30859,1.054687 3.46875,1.054687 2.30859,-0.210937 4.61719,-0.527343 6.82031,-0.949218 v 3.996093 c 0,10.394532 0.10547,20.789063 0.84375,31.0781254 0.31641,3.140625 0.41016,6.2929687 1.35938,9.3398437 0.73828,2.3085938 2.73047,3.9960938 4.61719,3.9960938 0.84375,0 1.79296,-0.421875 2.41406,-1.265625 z m 82.32715,-10.078125 c 10.39453,-5.8828125 12.28125,-19.5351559 6.30468,-29.9296879 -1.79296,-3.140625 -4.6289,-5.765625 -7.78125,-7.769531 -3.5625,-2.203125 -7.45312,-3.984375 -11.33203,-5.871094 -2.51953,-1.265625 -5.03906,-2.625 -7.13672,-4.628906 -1.37109,-1.464844 -2.42578,-3.878906 -1.79296,-5.871094 1.79296,-5.671875 10.8164,-8.824218 16.17187,-8.824218 2.30859,0 4.61719,0.316406 6.51563,1.78125 0.83203,0.738281 1.35937,1.792968 2.20312,2.519531 0.72656,0.632812 1.57031,0.949219 2.30859,0.949219 2.94141,0 5.35547,-4.40625 3.87891,-8.085938 -0.41016,-1.054687 -3.03516,-3.890625 -3.98437,-4.511719 -3.04688,-2.414062 -6.41016,-3.046875 -10.28907,-3.046875 -11.87109,0 -24.04687,8.296875 -24.99609,20.789063 -0.10547,3.046875 0.52734,6.199219 1.89844,8.824219 1.78125,3.5625 5.14453,6.1875 8.60156,8.179687 3.78516,2.109375 7.76953,3.785156 11.66016,5.777344 2.73046,1.476562 5.67187,3.152344 7.45312,5.777344 1.67578,2.519531 2.73047,6.199218 1.57031,9.140625 -2.20312,5.660156 -8.8125,7.2421871 -14.27343,7.2421871 -3.25782,0 -6.72657,-0.5273441 -8.40235,-1.8867191 -0.52734,-0.421875 -1.99219,-2.109375 -2.20312,-2.730468 -0.52735,-1.898438 -2.3086,-3.152344 -3.9961,-3.152344 -1.04297,0 -1.99218,0.527344 -2.625,1.675781 -1.04297,1.886719 -1.14843,4.101563 -0.19922,6.1992189 3.45704,7.7695312 10.07813,10.49999998 18.0586,10.49999998 4.30078,0 8.70703,-0.94921875 12.38672,-3.04687498 z m 32.22949,10.078125 c 1.05469,-1.2539063 2.10937,-5.25 1.79297,-6.82031252 -0.31641,-1.4765625 -1.05469,-3.04687498 -2.09766,-4.10156248 -0.94922,-11.1328129 -1.05469,-22.3593749 -1.05469,-33.4921879 0,-1.464843 0,-2.941406 0.10547,-4.40625 l 3.46875,-0.632812 c 2.73047,-0.421875 5.55469,-0.527344 8.39063,-0.210938 1.16015,0.210938 2.51953,-0.527343 3.25781,-1.464843 1.99219,-2.425782 1.78125,-6.09375 -0.31641,-8.191407 -0.9375,-0.84375 -4.30078,-1.054687 -5.5664,-1.054687 -3.14063,0 -6.1875,0.421875 -9.23438,1.054687 l 0.31641,-14.496093 c 0,-0.105469 0.10547,-0.316407 0.10547,-0.421875 0.21094,-1.78125 0,-3.773438 -1.05469,-5.144532 -0.73828,-0.9375 -1.57031,-1.359375 -2.51953,-1.359375 -3.57422,0 -4.51172,3.878907 -4.51172,6.714844 l -0.31641,16.382813 c -1.99218,0.421875 -3.99609,0.738281 -6.09375,0.949218 -0.52734,-0.316406 -1.04296,-0.527343 -1.57031,-0.527343 -2.09765,0 -3.99609,2.203125 -4.20703,4.617187 -0.0937,1.78125 0.21094,4.101563 1.58203,5.355469 0.94922,0.84375 2.3086,1.054687 3.46875,1.054687 2.3086,-0.210937 4.61719,-0.527343 6.82031,-0.949218 v 3.996093 c 0,10.394532 0.10547,20.789063 0.84375,31.0781254 0.31641,3.140625 0.41016,6.2929687 1.35938,9.3398437 0.73828,2.3085938 2.73047,3.9960938 4.61719,3.9960938 0.84375,0 1.79297,-0.421875 2.41406,-1.265625 z m 36.2168,-26.7773439 c 2.20312,-1.148437 2.30859,-4.617187 1.58203,-7.03125 -0.42188,-1.371094 -1.6875,-2.625 -3.04688,-2.941406 -0.94922,-0.210938 -1.88672,0.316406 -2.83594,0.421875 -3.36328,0.527344 -7.55859,-0.210938 -9.86718,-2.625 2.51953,0.210937 5.03906,0.210937 7.45312,-0.421875 3.5625,-0.949219 7.24219,-2.730469 9.44531,-5.671875 2.41407,-3.152344 3.15235,-7.875 2.20313,-11.753906 -1.35938,-5.882813 -5.97656,-8.613282 -11.12109,-8.613282 -4.52344,0 -9.45704,2.203125 -12.71485,6.410157 -3.98437,5.25 -5.35547,12.808593 -4.30078,19.3125 1.67578,9.351562 8.50781,14.074218 17.53125,14.074218 2.00391,0 3.89063,-0.316406 5.67188,-1.160156 z m -14.37891,-22.78125 c 1.57031,-3.363281 4.72266,-5.355469 8.49609,-5.355469 1.05469,0 2.53125,0.105469 3.36328,0.949219 0,0.726563 -0.42187,1.464844 -0.9375,1.992188 -1.58203,1.253906 -3.46875,2.097656 -5.46093,2.414062 -1.79297,0.316406 -3.67969,0.210938 -5.46094,0 z m 35.69824,46.9335939 c 0.42188,-1.6757813 0.31641,-3.5742188 0.21094,-5.35546877 -0.10547,-6.39843753 -0.21094,-12.70312513 0.10547,-19.11328113 0.83203,0.316406 1.78125,0.527344 2.73047,0.527344 3.14062,0 7.66406,-1.886719 10.18359,-3.667969 4.08984,-2.941406 7.13672,-7.875 8.29688,-12.820313 1.46484,-6.292968 0.19921,-17.214843 -5.25,-20.789062 -1.47657,-0.9375 -2.94141,-1.359375 -4.52344,-1.359375 -4.72266,0 -9.33985,4.089844 -12.38672,8.71875 l 0.63281,-4.417969 c 0.10547,-0.527344 0.42188,-0.9375 0.52735,-1.464844 0.51562,-2.730468 -0.42188,-5.988281 -3.25782,-6.09375 -3.67968,0 -4.82812,4.511719 -5.25,7.347657 -1.26562,8.085937 -1.58203,16.382812 -1.6875,24.574218 -0.10547,8.402344 0,16.910157 0.73828,25.4062504 0.21094,2.4140625 0.42188,4.9335937 1.16016,7.359375 0.62109,2.0976562 2.30859,4.0898437 4.40625,4.0898437 1.67578,0 2.94141,-1.3710937 3.36328,-2.9414062 z m 2.20313,-34.6523439 c -0.21094,0 -0.73828,-0.210937 -0.63282,-0.421875 0.73829,-4.828125 3.36329,-13.640625 7.98047,-16.265625 0.73828,-0.421875 2.3086,-0.84375 3.04688,-0.421875 0.52734,0.210938 1.05469,1.78125 1.2539,2.414063 0.52735,2.203125 0.63282,4.617187 -0.10546,6.714843 -0.72657,2.730469 -2.92969,5.144532 -5.44922,6.515625 -1.26563,0.632813 -4.73438,1.992188 -6.09375,1.464844 z m 37.16601,11.449219 c 7.76953,-1.371094 13.44141,-8.929688 9.97266,-15.960938 -0.9375,-1.886718 -2.51953,-3.363281 -4.08985,-4.511718 -2.41406,-1.6875 -5.14453,-2.835938 -7.76953,-4.207032 -0.94922,-0.515625 -1.99218,-1.042968 -2.83593,-1.78125 0.84375,-1.464843 2.20312,-2.835937 3.89062,-3.257812 1.04297,-0.316406 2.30859,-0.421875 3.35156,-0.316406 0.21094,0 1.16016,0.316406 1.26563,0.421875 3.25781,0.527343 5.5664,-2.625 5.5664,-5.988282 0,-3.773437 -3.15234,-4.722656 -6.30468,-4.722656 -7.24219,0 -13.23047,4.933594 -15.4336,11.765625 -0.84375,2.519531 -0.94922,5.460938 0.21094,7.875 0.94922,1.992188 2.83594,3.5625 4.72266,4.722656 2.9414,1.78125 6.19922,2.835938 9.03515,4.722657 -1.47656,0.84375 -3.15234,1.054687 -4.83984,1.054687 -0.9375,0 -1.99219,-0.105469 -2.92969,-0.210937 -1.26562,-0.210938 -2.83594,0.949218 -3.36328,2.203125 -0.73828,1.464843 -0.94922,3.257812 -0.52734,4.828125 0.3164,1.160156 1.05468,2.203125 1.88672,2.941406 0.84375,0.527344 2.41406,0.738281 3.99609,0.738281 1.57031,0 3.25781,-0.210937 4.19531,-0.316406 z m 0,0"
       style="fill:#231f20;fill-opacity:1;fill-rule:nonzero;stroke:none"
       aria-label="Foot Steps"
       transform="matrix(1.3333333,0,0,1.3333333,158.13213,218.00827)" />
  </g>
  <path
     id="path6"
     d="m 14.319289,-4.5579453 c 0.398438,-1.6054688 -0.644531,-4.078125 -2.15625,-4.8867188 -0.5625,-5.0390629 -0.726562,-10.1601559 -0.644531,-15.2812499 2.71875,-0.07031 5.519531,-0.316406 8.238281,-0.480469 1.042969,-0.07031 2.003906,-0.234375 2.964844,-0.07031 0.714844,0.152343 1.921875,-0.480469 2.320312,-1.125 1.277344,-1.757813 1.359375,-3.597657 0.398438,-5.519532 -0.5625,-0.960937 -2.003906,-1.441406 -3.117188,-1.359375 -3.527343,0.08203 -7.042968,0.480469 -10.640625,0.644532 0.234375,-4.804688 0.632813,-9.609375 0.878907,-14.484375 0.632812,0 1.195312,0 1.757812,0.08203 4.804688,0 9.597656,-0.164063 14.238281,0.398437 0.878907,0.164063 1.921875,-0.246093 2.402344,-0.878906 1.441406,-1.839844 1.523438,-4.242187 0.246094,-6.082031 -0.410156,-0.5625 -1.125,-0.878906 -1.6875,-0.960938 -5.039063,-0.644531 -10.078125,-0.398437 -15.117188,-0.480468 -1.125,-0.08203 -2.238281,-0.08203 -3.363281,-0.08203 -0.316406,-0.234375 -0.714844,-0.398437 -1.1132812,-0.398437 -0.328125,-0.08203 -0.7265625,0 -1.125,0.164062 -0.2460937,0 -0.4804687,-0.08203 -0.7148437,-0.08203 -0.6445313,-0.164062 -1.4414063,-0.316406 -2.0859375,-0.08203 -2.0039063,0.5625 -2.71875,3.28125 -2.3203125,5.285156 0.3164062,1.59375 1.4414062,2.71875 2.8828125,2.800781 h 0.082031 c -0.1640625,2.800782 -0.3984375,5.589844 -0.6445312,8.390625 -0.082031,2.167969 -0.234375,4.242188 -0.3164063,6.410157 -0.8789062,0 -2.0859375,1.113281 -2.4023437,1.992187 -0.9609375,2.320313 -0.5625,5.285156 1.8398437,5.917969 0.1640625,0 0.234375,0.08203 0.3984375,0.08203 v 4.007813 c 0.082031,4.3125 0.2460938,8.71875 0.796875,13.0312497 0.3984375,2.1679687 1.125,6.0820312 3.609375,6.80859374 l 1.1953124,0.234375 c 1.757813,0.1640625 2.800782,-2.23828124 3.199219,-3.99609374 z M 47.196242,-19.194664 c 4.804688,-5.203125 5.449219,-13.523438 1.605469,-19.441406 -1.359375,-2.167969 -3.925781,-4.160157 -6.5625,-4.160157 -0.480469,0 -0.878906,0.07031 -1.195313,0.234375 -0.246093,0.08203 -0.328125,0 -0.398437,-0.08203 -0.410156,-0.152344 -0.808594,-0.234375 -1.207031,-0.234375 -3.597657,0 -7.195313,4.160156 -8.320313,7.195313 -1.042969,2.71875 -1.277344,5.847656 -1.042969,8.71875 0.328125,5.367187 3.128907,11.449218 9.28125,11.449218 2.882813,0 5.917969,-1.523437 7.839844,-3.679688 z m -9.035156,-4.640625 c -1.605469,-0.960938 -2.085938,-4.640625 -2.003906,-6.5625 0,-0.960938 0.08203,-2.085938 0.5625,-2.964844 0.398437,-0.632812 1.042968,-1.195312 1.675781,-1.523437 0.644531,0.328125 1.289062,0.644531 1.921875,0.726562 0.644531,0.08203 1.207031,-0.246094 1.6875,-0.5625 0.152344,-0.164062 0.550781,0.08203 0.796875,0.164063 1.113281,0.480468 1.839844,1.757812 2.238281,2.953125 0.960938,3.128906 -0.796875,6.808593 -3.925781,7.921875 -0.398438,0.164062 -0.878906,0.246093 -1.359375,0.246093 -0.550781,0 -1.113281,-0.164062 -1.59375,-0.398437 z m 24.155273,4.078125 c 0.726563,-2.882813 1.207032,-6 2.730469,-8.566406 0.550781,-0.960938 1.511719,-1.675782 2.390625,-2.320313 1.042969,-0.632812 2.167969,-1.277344 3.363281,-1.757812 0.398438,0.164062 0.726563,0.246093 1.125,0.246093 2.238282,0 3.433594,-3.28125 2.554688,-5.765625 -0.480469,-1.359375 -1.839844,-2.636718 -3.363281,-2.636718 -3.035157,0 -8.390625,3.597656 -10.160157,6 0,-0.644532 0,-1.277344 0.08203,-1.839844 0,-0.08203 0.164062,-0.398438 0.164062,-0.480469 0.5625,-2.238281 0,-4.886719 -2.15625,-5.4375 -1.769531,-0.410156 -3.210937,1.113281 -3.691406,2.871094 -0.316406,1.289062 -0.316406,2.648437 -0.398438,4.007812 -0.234375,4.476563 -0.480468,8.871094 -0.152343,13.277344 0.234375,2.320313 1.03125,6.878906 4.078125,6.878906 2.15625,0 2.953125,-2.800781 3.433593,-4.476562 z m 63.518551,17.9179687 c 7.92188,-4.4765625 9.36329,-14.8828127 4.80469,-22.8046877 -1.35937,-2.402344 -3.51562,-4.394531 -5.91797,-5.917969 -2.71875,-1.675781 -5.68359,-3.035156 -8.63672,-4.476562 -1.92187,-0.960938 -3.84375,-2.003906 -5.44921,-3.527344 -1.03125,-1.113281 -1.83985,-2.953125 -1.35938,-4.476562 1.35938,-4.324219 8.23828,-6.714844 12.32813,-6.714844 1.75781,0 3.51562,0.234375 4.95703,1.359375 0.63281,0.550781 1.04297,1.359375 1.67578,1.921875 0.5625,0.46875 1.20703,0.714844 1.75781,0.714844 2.25,0 4.08984,-3.363282 2.96484,-6.164063 -0.3164,-0.796875 -2.32031,-2.953125 -3.03515,-3.433594 -2.32031,-1.839843 -4.88672,-2.320312 -7.83985,-2.320312 -9.04687,0 -18.32812,6.316406 -19.04296,15.832031 -0.082,2.320313 0.39843,4.722656 1.4414,6.726563 1.35938,2.71875 3.91406,4.722656 6.55078,6.234375 2.88282,1.605468 5.92969,2.882812 8.88282,4.40625 2.08593,1.125 4.32421,2.402343 5.68359,4.394531 1.27734,1.921875 2.07422,4.722656 1.19531,6.960937 -1.67578,4.3242192 -6.71484,5.5195317 -10.875,5.5195317 -2.48437,0 -5.12109,-0.3984375 -6.39844,-1.4296875 -0.39843,-0.328125 -1.52343,-1.6054692 -1.6875,-2.0859372 -0.39843,-1.441407 -1.75781,-2.402344 -3.03515,-2.402344 -0.79688,0 -1.52344,0.398437 -2.00391,1.277344 -0.79687,1.441406 -0.8789,3.1289059 -0.15234,4.7226559 2.63672,5.9179688 7.67578,8.00390629 13.75781,8.00390629 3.28125,0 6.63281,-0.71484375 9.43359,-2.32031249 z m 27.20508,-21.7617187 c 0.2461,2.402344 0.79688,7.675781 4.07813,7.675781 1.20703,0 1.92187,-0.796875 2.5664,-1.757812 0.71485,-1.359375 0.71485,-3.199219 0,-4.640625 -0.082,-0.08203 -0.39843,-0.5625 -0.39843,-0.632813 -0.8086,-4.640625 -0.2461,-9.445312 0.0703,-14.167969 0.082,-1.195312 -0.23438,-2.636718 -1.19531,-3.515625 -0.48047,-0.398437 -1.04297,-0.644531 -1.67579,-0.644531 -0.5625,0 -1.20703,0.246094 -1.6875,0.726563 -1.19531,-1.839844 -2.80078,-3.128907 -5.03906,-3.128907 -7.75781,0 -11.67187,10.886719 -12.08203,17.203125 -0.23437,2.648438 0,5.519532 1.20703,7.921875 0.87891,1.839844 2.63672,3.445313 4.79297,3.445313 4.40625,0 7.44141,-5.121094 9.36328,-8.484375 z m -6.23437,-10.957031 c 0.55078,-0.5625 1.75781,-1.523438 2.55468,-1.207032 0.48047,0.246094 1.27735,1.769532 1.52344,2.167969 -1.20703,2.800781 -2.63672,5.519531 -4.40625,7.921875 -0.39844,0.632813 -1.75781,2.320313 -2.47265,2.472656 -1.125,-3.035156 0.48046,-9.035156 2.80078,-11.355468 z m 28.86914,38.8828122 c 1.125,-1.5234375 1.60547,-5.3671875 0.80859,-7.125 -0.24609,-0.4804688 -0.5625,-0.796875 -0.8789,-1.1953125 -0.5625,-6.9609377 -0.5625,-14.0039067 -0.48047,-20.9648437 v -2.71875 c 1.75781,-0.08203 3.43359,-0.164063 5.12109,-0.08203 0.39844,0 1.83984,0 2.15625,-0.08203 1.83984,-0.398437 2.80078,-2.71875 2.55469,-4.640625 -0.15235,-1.511718 -1.27735,-3.199218 -2.80078,-3.28125 -0.48047,0 -0.87891,0 -1.35938,0 -1.83984,0 -3.67969,0.08203 -5.51953,0.164063 0.082,-2.15625 0.24609,-4.242188 0.39844,-6.398438 0.24609,-2.402343 0.48047,-4.886718 1.4414,-7.042968 1.125,-0.234375 3.44532,0.796875 4.32422,1.523437 1.125,0.878906 2.63672,1.921875 4.07813,1.59375 1.92187,-0.550781 3.11719,-3.117187 2.80078,-5.121094 -0.082,-0.960937 -0.5625,-2.074218 -1.44141,-2.390625 -0.39843,-0.164062 -0.71484,-0.246093 -1.04297,-0.480468 -1.91015,-1.605469 -4.79296,-3.046875 -7.35937,-3.046875 -4.79297,0 -7.03125,4.804687 -7.92188,8.800781 -0.94921,4.160156 -1.27734,8.484375 -1.42968,12.796875 h -1.28907 c -0.15234,0 -0.96093,-0.316406 -1.11328,-0.316406 -0.5625,-0.08203 -1.20703,0.164062 -1.6875,0.480468 -0.48047,0.398438 -0.8789,0.960938 -1.11328,1.523438 -0.96094,1.757812 -0.72656,4.558594 0.87891,5.683594 0.8789,0.632812 2.0039,0.632812 3.03515,0.632812 h 1.20704 c 0,4.078125 0,8.167969 0.082,12.246094 0.0703,4.640625 0.23437,9.2812499 0.71484,13.9218749 0.24609,1.83984379 0.39844,3.8320313 1.35938,5.4375 0.5625,0.8789063 1.35937,1.2773438 2.23828,1.2773438 0.8789,0 1.6875,-0.3984375 2.23828,-1.1953125 z m 29.52832,-18.8906252 c 1.67578,-0.878906 1.75781,-3.515625 1.19531,-5.355469 -0.31641,-1.042968 -1.27734,-2.003906 -2.32031,-2.238281 -0.71485,-0.164062 -1.44141,0.234375 -2.15625,0.316406 -2.56641,0.398438 -5.76563,-0.152343 -7.52344,-1.992187 1.92188,0.152344 3.84375,0.152344 5.68359,-0.328125 2.71875,-0.714844 5.51954,-2.074219 7.19532,-4.3125 1.83984,-2.402344 2.40234,-6 1.6875,-8.964844 -1.04297,-4.476562 -4.5586,-6.5625 -8.48438,-6.5625 -3.44531,0 -7.19531,1.6875 -9.67969,4.886719 -3.03515,3.996094 -4.07812,9.75 -3.28125,14.71875 1.27735,7.113281 6.48047,10.722656 13.35938,10.722656 1.52344,0 2.96484,-0.246094 4.32422,-0.890625 z m -10.96875,-17.355469 c 1.20703,-2.554687 3.60937,-4.078125 6.48047,-4.078125 0.80859,0 1.92187,0.08203 2.5664,0.714844 0,0.5625 -0.3164,1.125 -0.72656,1.523438 -1.19531,0.960937 -2.63672,1.605468 -4.16016,1.839843 -1.35937,0.246094 -2.78906,0.164063 -4.16015,0 z m 33.28711,37.7578129 c 0.79687,-0.9609375 1.60547,-3.9960937 1.35937,-5.19140621 -0.23437,-1.125 -0.79687,-2.32031249 -1.60547,-3.12890629 -0.71484,-8.4726564 -0.79687,-17.0390624 -0.79687,-25.5117184 0,-1.125 0,-2.25 0.082,-3.363282 l 2.63672,-0.480468 c 2.08594,-0.316407 4.24219,-0.398438 6.41015,-0.164063 0.87891,0.164063 1.91016,-0.398437 2.47266,-1.113281 1.52344,-1.839844 1.35938,-4.640625 -0.23437,-6.246094 -0.72657,-0.632812 -3.28125,-0.796875 -4.24219,-0.796875 -2.40235,0 -4.72266,0.316406 -7.04297,0.796875 l 0.24609,-11.039062 c 0,-0.08203 0.0703,-0.234375 0.0703,-0.316407 0.16406,-1.359375 0,-2.882812 -0.79688,-3.925781 -0.5625,-0.714844 -1.19531,-1.042969 -1.92187,-1.042969 -2.71875,0 -3.4336,2.964844 -3.4336,5.121094 l -0.24609,12.480469 c -1.52344,0.328125 -3.03516,0.5625 -4.64063,0.726562 -0.39843,-0.246093 -0.79687,-0.398437 -1.19531,-0.398437 -1.60547,0 -3.04687,1.675781 -3.19922,3.515625 -0.082,1.359375 0.15235,3.117187 1.19531,4.078125 0.72657,0.644531 1.75782,0.796875 2.63672,0.796875 1.76953,-0.152344 3.52735,-0.398438 5.20313,-0.714844 v 3.035156 c 0,7.921875 0.082,15.84375 0.64453,23.6835942 0.23437,2.40234374 0.31641,4.8046875 1.04297,7.125 0.55078,1.7578125 2.07422,3.0351562 3.51562,3.0351562 0.64453,0 1.35938,-0.3164062 1.83985,-0.9609375 z m 35.28222,-8.6367187 c 0.87891,-6.8789063 0.31641,-13.8398442 0.23438,-20.7187502 0,-3.761719 0.082,-7.605469 0,-11.367187 0,-2.238282 -0.31641,-6.398438 -3.43359,-6.398438 -1.75782,0 -2.64844,1.839844 -3.04688,3.199219 -1.35937,3.84375 -2.63672,7.6875 -4.55859,11.203125 -0.48047,0.960937 -1.92188,3.445312 -2.95313,3.761719 -0.96094,-0.878907 -1.125,-4.324219 -1.125,-5.683594 0,-2.15625 0.2461,-4.3125 0.64453,-6.480469 0,-0.08203 0.23438,-0.480469 0.23438,-0.550781 0.79687,-2.167969 0.3164,-5.203125 -1.67578,-6.164063 -0.32813,-0.164062 -0.72657,-0.246093 -1.04297,-0.246093 -1.44141,0 -2.63672,1.605468 -3.03516,3.28125 -0.72656,3.128906 -1.04297,6.246093 -1.125,9.363281 -0.082,3.035156 0.16406,6.082031 1.19531,8.882812 1.04297,2.636719 3.04688,5.601563 6.2461,5.601563 3.59765,0 6.16406,-3.84375 7.67578,-6.644531 0.082,4.40625 0.16406,8.800781 -0.082,13.2070309 -0.15235,4.3945313 -0.46875,7.99218754 -5.19141,9.5976563 -1.75781,0.5625 -3.59765,0.8789062 -5.4375,0.6328125 -0.082,0 -0.32812,-0.3164063 -0.41015,-0.3984375 -0.55079,-0.48046876 -1.35938,-0.79687501 -2.15625,-0.79687501 -0.23438,0 -0.5625,0.0820313 -0.79688,0.1640625 -0.64453,0.31640625 -1.20703,1.03125001 -1.44141,1.75781251 -0.72656,2.15625 0.87891,5.1210937 2.95313,6.3164062 1.125,0.7265625 2.64844,0.796875 4.00781,0.796875 8.63672,0 13.19531,-4.1601562 14.32031,-12.3164062 z m 0,0"
     style="fill:#231f20;fill-opacity:1;fill-rule:nonzero;stroke:none"
     aria-label="For Safety"
     transform="matrix(1.3333333,0,0,1.3333333,199.66933,968.01867)" />
  <g
     id="layer-MC3"
     inkscape:groupmode="layer"
     inkscape:label="Layer 3" />
  <g
     id="layer-MC4"
     inkscape:groupmode="layer"
     inkscape:label="toplogotextr"
     style="display:none">
    <path
       id="path7"
       d="M 10.738232,-3.4171046 C 11.039861,-4.6109514 10.271123,-6.4854302 9.1148246,-7.0813694 8.6963011,-10.856017 8.5760066,-14.689672 8.6329373,-18.544578 c 2.0447947,-0.05922 4.1483887,-0.235522 6.1984447,-0.354264 0.761821,-0.05726 1.491868,-0.172691 2.204174,-0.06128 0.541682,0.110171 1.448128,-0.356518 1.752752,-0.853327 0.943065,-1.298657 1.019088,-2.68087 0.295534,-4.126831 -0.426251,-0.711375 -1.500435,-1.087794 -2.350868,-1.019914 -2.641975,0.05489 -5.274563,0.369013 -7.9588327,0.484765 0.1661757,-3.602995 0.4659407,-7.203412 0.6373773,-10.865928 0.4893808,-0.0029 0.9046944,-0.0031 1.3259914,0.05952 3.604232,-0.0044 7.204441,-0.119995 10.683234,0.302837 0.664028,0.109449 1.446891,-0.185895 1.793191,-0.658256 1.088517,-1.378089 1.156389,-3.19016 0.190827,-4.560609 -0.30442,-0.419129 -0.843524,-0.662889 -1.264821,-0.725505 -3.769802,-0.471625 -7.560439,-0.289849 -11.326733,-0.357405 -0.8511553,-0.05447 -1.7042708,-0.06065 -2.5348978,-0.06024 -0.240152,-0.180423 -0.5483881,-0.295339 -0.8413564,-0.295854 -0.2394295,-0.05808 -0.5376587,9.3e-4 -0.8378477,0.108215 -0.1739241,0.01001 -0.3650758,-0.04611 -0.5356989,-0.04735 -0.4788591,-0.116154 -1.0767624,-0.24283 -1.5706816,-0.05807 -1.4904233,0.417382 -2.0396291,2.454545 -1.7366496,3.960236 0.2472732,1.196218 1.0862587,2.040974 2.1675595,2.101937 l 0.062823,-0.006 c -0.1279089,2.099778 -0.3040958,4.197597 -0.4915268,6.292115 -0.052089,1.633504 -0.1663833,3.187681 -0.226416,4.80664 -0.6633049,0.0129 -1.5675839,0.846622 -1.8073207,1.496827 -0.7193141,1.742957 -0.4199428,3.968174 1.3810917,4.448059 0.111101,-0.004 0.1799074,0.05282 0.2989516,0.06334 l 8.35e-4,2.992506 c 0.061802,3.242457 0.1811662,6.5384531 0.5954587,9.7866861 0.3070029,1.616792 0.8474564,4.5600901 2.7060531,5.09351333 l 0.903457,0.16752544 C 9.6644716,-0.30039302 10.448569,-2.0976116 10.738232,-3.4171046 Z m 0,0"
       style="fill:#ffffff;fill-opacity:1;fill-rule:nonzero;stroke:none"
       aria-label="F"
       transform="matrix(1.279342,-0.37558214,0.37558214,1.279342,349.92053,398.77973)" />
    <path
       id="path8"
       d="m 14.103888,-14.397623 c 3.585373,-3.907785 4.073254,-10.141684 1.206731,-14.588358 -1.025194,-1.616962 -2.940027,-3.10947 -4.924098,-3.110697 -0.36483,-0.0104 -0.6686605,0.05773 -0.9071089,0.169503 -0.173008,0.06094 -0.2485566,0.0042 -0.2993898,-0.06123 -0.2935469,-0.107743 -0.6045641,-0.170437 -0.8996301,-0.172073 -2.7050253,0.0027 -5.3988904,3.113035 -6.2404418,5.393107 -0.777455,2.051907 -0.9649532,4.390525 -0.7758769,6.552044 0.2387995,4.022072 2.3348791,8.584552 6.9527504,8.585954 2.1614031,-1.17e-4 4.4441621,-1.154264 5.8870641,-2.768246 z m -6.7785733,-3.485401 c -1.2088944,-0.718793 -1.5589424,-3.479267 -1.5071746,-4.9255 0.00625,-0.707866 0.066375,-1.562506 0.4185261,-2.203296 0.309907,-0.492556 0.776754,-0.918152 1.2667389,-1.151868 0.4780655,0.237221 0.9546702,0.48607 1.4430191,0.547421 0.4767216,0.05989 0.8984031,-0.194218 1.2459378,-0.422208 0.133803,-0.124921 0.430213,0.05405 0.611868,0.1123 0.828289,0.363896 1.368406,1.329375 1.680358,2.230758 0.710788,2.333359 -0.604914,5.097164 -2.9427137,5.937313 -0.311134,0.126265 -0.6614738,0.188551 -1.026304,0.17815 -0.4142611,0.007 -0.8357089,-0.116799 -1.1902556,-0.30307 z m 0,0"
       style="fill:#ffffff;fill-opacity:1;fill-rule:nonzero;stroke:none"
       aria-label="o"
       transform="matrix(1.3229347,-0.16619767,0.16619767,1.3229347,375.07027,391.27787)" />
    <path
       id="path9"
       d="m 14.097475,-14.39955 c 3.600557,-3.904999 4.084528,-10.139532 1.202361,-14.57746 -1.013346,-1.625808 -2.936407,-3.122315 -4.918112,-3.115396 -0.363918,-0.0093 -0.6665477,0.04945 -0.9078877,0.17614 -0.173821,0.05369 -0.2463635,-0.0021 -0.3071961,-0.05839 -0.2860598,-0.117848 -0.593256,-0.176233 -0.8864589,-0.176526 -2.6973752,-3.52e-4 -5.390372,3.118682 -6.239934,5.391797 -0.77627,2.047432 -0.9668837,4.376942 -0.7770093,6.539154 0.2390668,4.024991 2.3403271,8.587195 6.9491477,8.583368 2.1699753,0.0092 4.4469673,-1.146826 5.8850893,-2.762691 z m -6.7739114,-3.48867 c -1.200669,-0.715473 -1.554809,-3.481116 -1.4938821,-4.925994 -0.00398,-0.703505 0.057273,-1.538557 0.4068712,-2.197213 0.3096085,-0.481181 0.7854384,-0.910206 1.2690317,-1.140164 0.4667311,0.239806 0.945172,0.479156 1.4284725,0.542401 0.4828439,0.05154 0.9074313,-0.187849 1.2617601,-0.424493 0.124241,-0.122122 0.412584,0.05428 0.602682,0.117227 0.835217,0.366167 1.376644,1.318448 1.681592,2.221312 0.712415,2.329476 -0.598527,5.101419 -2.9468557,5.931845 -0.2998893,0.128972 -0.6610678,0.189969 -1.0249865,0.180706 -0.4220112,0.0047 -0.8251695,-0.108551 -1.1846852,-0.305627 z m 0,0"
       style="fill:#ffffff;fill-opacity:1;fill-rule:nonzero;stroke:none"
       aria-label="o"
       transform="matrix(1.3323205,0.05196002,-0.05196002,1.3323205,397.1296,388.23747)" />
    <path
       id="path10"
       d="M 12.853708,4.3850202 C 13.445596,3.6579889 14.038989,1.3847937 13.863646,0.4864829 13.665512,-0.35784794 13.257121,-1.2705965 12.652299,-1.8566814 12.10993,-8.206719 12.067865,-14.63301 12.06553,-20.996733 c -0.0049,-0.844143 -0.0069,-1.676914 0.04793,-2.523841 l 1.97569,-0.359039 c 1.560601,-0.231543 3.186413,-0.298174 4.814822,-0.111846 0.653609,0.102956 1.441317,-0.32261 1.853949,-0.848019 1.143906,-1.371677 1.029427,-3.480712 -0.174507,-4.678457 -0.553767,-0.478031 -2.469297,-0.604952 -3.179858,-0.597117 -1.799124,0.0011 -3.538794,0.240988 -5.284266,0.603093 l 0.184275,-8.282037 c 0.0086,-0.06252 0.06271,-0.184683 0.05992,-0.244372 0.108994,-1.017407 0.0078,-2.15155 -0.596856,-2.930905 -0.425801,-0.54612 -0.897371,-0.79101 -1.440236,-0.788695 -2.0407119,8.56e-4 -2.5999427,2.21724 -2.5958318,3.834465 l -0.1682759,9.364937 c -1.1371147,0.234798 -2.2741824,0.421277 -3.4765547,0.539481 -0.3096297,-0.176519 -0.6051037,-0.29618 -0.9092122,-0.305002 -1.1937378,0.0074 -2.26931939,1.26542 -2.39572351,2.649456 -0.0720481,1.020286 0.12278422,2.336421 0.89516101,3.061937 0.5310237,0.483694 1.3210455,0.600993 1.9832895,0.593111 1.3132102,-0.109569 2.6407173,-0.307232 3.9000416,-0.536226 l -0.00221,2.270928 c 0.00559,5.940236 0.059496,11.8805194 0.485788,17.7643207 0.1716189,1.80497392 0.2437715,3.5984822 0.7877757,5.3469742 0.410846,1.3106612 1.5553263,2.2696014 2.6296853,2.2678045 0.483177,4.701e-4 1.017737,-0.2292292 1.393376,-0.7091982 z m 0,0"
       style="fill:#ffffff;fill-opacity:1;fill-rule:nonzero;stroke:none"
       aria-label="t"
       transform="matrix(1.2938374,0.32212212,-0.32212212,1.2938374,415.88347,388.49853)" />
    <path
       id="path11"
       d="m 15.692145,-1.0960291 c 4.754062,-2.7098889 5.628461,-8.9358169 2.883999,-13.6962569 -0.809722,-1.424429 -2.11264,-2.630008 -3.551501,-3.550835 -1.62627,-1.003065 -3.408175,-1.808426 -5.1794508,-2.671408 -1.1578018,-0.57107 -2.3143728,-1.213412 -3.2679813,-2.116226 -0.6261168,-0.675571 -1.1117036,-1.789962 -0.8148678,-2.688523 0.8137532,-2.602593 4.9409149,-4.045814 7.3841819,-4.047938 1.059677,0.0048 2.114768,0.163692 2.970476,0.822033 0.400553,0.347968 0.633053,0.831765 1.012684,1.163957 0.339911,0.289115 0.730507,0.432666 1.054419,0.420918 1.344765,0.0097 2.454681,-2.001984 1.788174,-3.68599 -0.197927,-0.47742 -1.398916,-1.783361 -1.835274,-2.066434 -1.381798,-1.100965 -2.937581,-1.387956 -4.700577,-1.391426 -5.4221356,7.79e-4 -10.9829014,3.789254 -11.4304524,9.510014 -0.043413,1.398135 0.2537564,2.823346 0.8785301,4.022994 0.8060295,1.638244 2.3479374,2.840243 3.9335932,3.740484 1.7290944,0.962449 3.5540761,1.728091 5.3262461,2.650821 1.24664,0.670873 2.582117,1.441548 3.411308,2.631239 0.766422,1.142363 1.240036,2.8384516 0.719875,4.1724748 -1.013919,2.589502 -4.043919,3.3175455 -6.5448082,3.3090401 C 8.252809,-4.5656378 6.6748729,-4.7971324 5.9071077,-5.4154182 5.6581603,-5.6162549 4.9893029,-6.383126 4.8999058,-6.6736955 4.6411129,-7.5317538 3.8417956,-8.1081941 3.0693308,-8.1196072 c -0.4895038,0.00503 -0.91568,0.2481637 -1.20211,0.7673172 -0.4697006,0.866673 -0.5257566,1.8811485 -0.093204,2.8308421 1.5840873,3.55732303 4.6163243,4.81974172 8.2618132,4.82489147 1.967413,-0.006488 3.97891,-0.44575286 5.656315,-1.39947267 z m 0,0"
       style="fill:#ffffff;fill-opacity:1;fill-rule:nonzero;stroke:none"
       aria-label="S"
       transform="matrix(1.311211,-0.24187498,0.24187498,1.311211,345.84173,496.4436)" />
    <path
       id="path12"
       d="M 10.271753,3.505846 C 10.7589,2.9254482 11.225115,1.1025419 11.080966,0.38600068 10.948133,-0.29525242 10.604644,-1.0023567 10.129708,-1.4882953 9.6956526,-6.567817 9.6489614,-11.701501 9.6487396,-16.799494 c -0.00407,-0.668059 -0.00814,-1.336118 0.046515,-2.015224 l 1.5854164,-0.286553 c 1.244521,-0.196701 2.546022,-0.252115 3.83339,-0.09674 0.526236,0.09978 1.163032,-0.244512 1.4961,-0.674321 0.915032,-1.102876 0.81704,-2.779889 -0.144684,-3.740183 -0.429138,-0.391658 -1.975106,-0.479677 -2.549287,-0.486252 -1.44158,0.0069 -2.826583,0.190304 -4.2246459,0.490722 l 0.1462535,-6.631572 c 6.709e-4,-0.05859 0.048616,-0.151797 0.049153,-0.198669 0.091284,-0.807602 0.00801,-1.722678 -0.4770373,-2.349366 -0.334991,-0.425739 -0.7312555,-0.617789 -1.1531028,-0.622619 -1.6407859,0.0047 -2.0713105,1.781088 -2.0743523,3.0702 l -0.1326126,7.487254 c -0.9164179,0.200457 -1.8321648,0.342325 -2.7825289,0.436918 -0.2444675,-0.143433 -0.4777537,-0.239861 -0.7239655,-0.230961 -0.9608745,-0.011 -1.82796077,0.998667 -1.92259952,2.099218 -0.0445465,0.819856 0.0957111,1.876219 0.72190732,2.457646 0.4409895,0.380074 1.0609691,0.480929 1.5884125,0.475249 1.055826,-0.09339 2.1123229,-0.245361 3.1106324,-0.433161 l 0.0025,1.828273 c 0.00425,4.746454 0.043514,9.5050279 0.3881195,14.2085007 C 6.5681531,-0.56807823 6.6219569,0.87403861 7.051407,2.2618593 7.3908703,3.320503 8.3080034,4.0810541 9.1635503,4.0791312 9.5502437,4.0835612 9.98609,3.8893181 10.271749,3.505845 Z m 0,0"
       style="fill:#ffffff;fill-opacity:1;fill-rule:nonzero;stroke:none"
       aria-label="t"
       transform="matrix(1.3332459,-0.01526665,0.01526665,1.3332459,370.47827,491.79907)" />
    <path
       id="path13"
       d="m 11.701049,-8.7252314 c 1.016538,-0.549706 1.082242,-2.1227516 0.735386,-3.2303406 -0.204364,-0.627241 -0.779505,-1.193667 -1.406917,-1.342619 -0.433822,-0.09774 -0.855812,0.156666 -1.2872332,0.200019 -1.5425816,0.237457 -3.4480807,-0.08928 -4.5144,-1.207018 1.1521132,0.09623 2.3065129,0.098 3.4082998,-0.189386 1.6404344,-0.435734 3.3145064,-1.239959 4.3213284,-2.589577 1.10356,-1.441783 1.440675,-3.595658 1.014201,-5.378357 -0.622808,-2.681635 -2.751476,-3.939948 -5.0952548,-3.93998 -2.0615953,-0.0048 -4.3150964,1.01073 -5.8067247,2.927288 -1.8307127,2.409964 -2.44938426,5.864132 -1.9628678,8.830351 0.7588393,4.269742 3.8872669,6.452257 8.0092857,6.4502617 0.9188556,0.00189 1.7746676,-0.1547788 2.5848966,-0.5306421 z M 5.1299239,-19.147787 c 0.7175508,-1.53255 2.1676818,-2.455604 3.8876212,-2.451773 0.4827479,-0.0014 1.1590869,0.04841 1.5394089,0.434195 -0.0022,0.329996 -0.180417,0.665907 -0.427507,0.902737 -0.7191787,0.578714 -1.5877082,0.960435 -2.5029917,1.1113 -0.8103433,0.14032 -1.674414,0.09759 -2.4965314,0.0035 z m 0,0"
       style="fill:#ffffff;fill-opacity:1;fill-rule:nonzero;stroke:none"
       aria-label="e"
       transform="matrix(1.3266519,0.1333138,-0.1333138,1.3266519,389.4464,491.45293)" />
    <path
       id="path14"
       d="m 6.3300353,2.3083099 c 0.199598,-0.772629 0.1521421,-1.64711799 0.097725,-2.45888463 -0.044841,-2.93011777 -0.099769,-5.80880737 0.0486,-8.74375667 0.3962951,0.1578331 0.825265,0.257987 1.2518192,0.2615358 1.4471587,7.717e-4 3.4923395,-0.869185 4.6630315,-1.6916854 1.868732,-1.331814 3.25912,-3.601261 3.780062,-5.848967 0.687156,-2.877345 0.104225,-7.883688 -2.398356,-9.50138 -0.667643,-0.435358 -1.332373,-0.640498 -2.063162,-0.644968 -2.1635281,0.0029 -4.2686544,1.886527 -5.6657917,3.999773 l 0.2905122,-2.025868 c 0.045389,-0.231426 0.1998845,-0.420091 0.2421476,-0.662812 0.247116,-1.259988 -0.1962117,-2.730158 -1.4883764,-2.785982 -1.6773771,0.0021 -2.2081941,2.082352 -2.4007565,3.363721 -0.5813109,3.699198 -0.7141888,7.481004 -0.768007,11.240932 -0.046359,3.8308191 0.00822,7.718819 0.3413204,11.6026971 0.098672,1.10349959 0.1872585,2.25842722 0.5161493,3.3590129 0.3026787,0.9619291 1.0645865,1.8697279 2.0255942,1.8712842 0.7677975,0.00639 1.3379766,-0.6134513 1.5274882,-1.3346523 z M 7.3439995,-13.53607 c -0.096605,0.0024 -0.3436591,-0.09944 -0.2946468,-0.185963 0.3452774,-2.223412 1.5297287,-6.24759 3.6548913,-7.443661 0.333286,-0.201665 1.062369,-0.379111 1.390899,-0.202525 0.247054,0.10186 0.484096,0.82661 0.573529,1.105841 0.24429,1.014565 0.294659,2.119272 -0.04814,3.077441 -0.324258,1.244858 -1.331501,2.350425 -2.495731,2.97659 -0.5786339,0.281722 -2.1581233,0.901212 -2.7808015,0.672277 z m 0,0"
       style="fill:#ffffff;fill-opacity:1;fill-rule:nonzero;stroke:none"
       aria-label="p"
       transform="matrix(1.2850349,0.35561634,-0.35561634,1.2850349,407.7764,492.75533)" />
    <path
       id="path15"
       d="m 6.902344,-8.3156782 c 3.560691,-0.6204132 6.148224,-4.0712838 4.565265,-7.2760488 -0.434146,-0.883544 -1.144902,-1.535114 -1.8655922,-2.076576 -1.1096247,-0.764884 -2.3648423,-1.298447 -3.5575885,-1.916173 -0.441472,-0.249365 -0.9090172,-0.472395 -1.2933106,-0.816379 0.3845018,-0.667501 1.0155521,-1.289061 1.7797063,-1.492015 0.4814683,-0.138658 1.0472313,-0.18864 1.534905,-0.133417 0.089066,-0.0057 0.5247238,0.128411 0.5773918,0.180557 1.4791602,0.249442 2.5358822,-1.191808 2.5334832,-2.727365 0.0019,-1.73473 -1.4467258,-2.157273 -2.8670129,-2.160688 -3.3226944,8.09e-4 -6.0576977,2.252259 -7.0641238,5.375572 -0.37686229,1.149621 -0.42778306,2.502013 0.106927,3.584208 0.4291134,0.925496 1.2817342,1.649732 2.1543532,2.179957 1.340425,0.805662 2.8312142,1.285644 4.1247856,2.15443 -0.6741755,0.380696 -1.444144,0.46838 -2.2040483,0.472161 -0.4350058,-0.0031 -0.9225492,-0.0321 -1.3578157,-0.08758 -0.5612524,-0.09678 -1.2923457,0.430939 -1.5253099,1.008591 -0.3320947,0.66724 -0.4328675,1.480073 -0.2353366,2.2075685 0.1336254,0.5234201 0.4766188,0.99339 0.8504569,1.3426669 0.3837719,0.2391697 1.1179941,0.3403337 1.8254913,0.3368137 0.71279,0.00694 1.487921,-0.096497 1.9173732,-0.1562833 z m 0,0"
       style="fill:#ffffff;fill-opacity:1;fill-rule:nonzero;stroke:none"
       aria-label="s"
       transform="matrix(1.1895882,0.60221074,-0.60221074,1.1895882,428.1172,498.42307)" />
    <path
       id="path16"
       d="m 15.686249,-1.0920518 c 4.768614,-2.704258 5.636591,-8.9394592 2.88709,-13.6911132 -0.799202,-1.427522 -2.102072,-2.635884 -3.553009,-3.542877 -1.624904,-1.014795 -3.405848,-1.822363 -5.1748091,-2.695131 -1.1595714,-0.566984 -2.3168072,-1.192515 -3.2770757,-2.110427 -0.6249798,-0.679359 -1.0972205,-1.77718 -0.8027109,-2.691949 0.8046709,-2.590296 4.9297787,-4.03952 7.3807877,-4.035568 1.053189,-2.08e-4 2.128315,0.155271 2.983827,0.818024 0.382513,0.348336 0.630617,0.832048 1.009473,1.154436 0.326302,0.287454 0.721813,0.427549 1.050144,0.428919 1.339273,0.0018 2.451916,-2.017932 1.782146,-3.691271 -0.189557,-0.481376 -1.392952,-1.772558 -1.829696,-2.055035 -1.379392,-1.112899 -2.927872,-1.397504 -4.705918,-1.39572 -5.4252873,-0.003 -10.9830905,3.786313 -11.4105696,9.504286 -0.062706,1.395485 0.2391758,2.824279 0.869083,4.026905 0.7958518,1.629112 2.3262582,2.837168 3.9232336,3.728877 1.725038,0.974222 3.557217,1.732231 5.31719,2.653898 1.258691,0.669454 2.597205,1.454681 3.415398,2.641363 0.775284,1.145094 1.256769,2.834379 0.725026,4.1689316 -0.999608,2.5965939 -4.040504,3.3267442 -6.5337607,3.3234532 -1.482315,-0.00284 -3.079034,-0.2541835 -3.8330915,-0.8730136 C 5.665525,-5.6130434 4.9903254,-6.3858839 4.8982128,-6.6639953 4.6538144,-7.5345852 3.84187,-8.1135035 3.0747649,-8.1112663 c -0.4876731,-0.00538 -0.9291371,0.2420629 -1.1939938,0.7662972 -0.4804593,0.8721669 -0.5298117,1.8741209 -0.098803,2.8295604 1.5800257,3.55095879 4.6097071,4.80709633 8.2569469,4.81185549 1.963336,-0.001429 3.981612,-0.43929681 5.647334,-1.38849859 z m 0,0"
       style="fill:#ffffff;fill-opacity:1;fill-rule:nonzero;stroke:none"
       aria-label="S"
       transform="matrix(1.0977072,0.75684647,-0.75684647,1.0977072,306.0952,828.36573)" />
    <path
       id="path17"
       d="m 10.216347,-14.156276 c 0.154076,1.443888 0.477396,4.604819 2.450188,4.6048783 0.722011,0.00114 1.162528,-0.4858533 1.53622,-1.0535943 0.434957,-0.822517 0.434016,-1.91695 0.0055,-2.780007 -0.04747,-0.04915 -0.247111,-0.339712 -0.248919,-0.399439 -0.474946,-2.776958 -0.132231,-5.659145 0.0533,-8.492887 0.05209,-0.709758 -0.137505,-1.580047 -0.70538,-2.110087 -0.305866,-0.229866 -0.641528,-0.380655 -1.01395,-0.378578 -0.338173,-0.0059 -0.724522,0.143796 -1.007989,0.425993 -0.725597,-1.106985 -1.6818981,-1.859793 -3.0178831,-1.863036 -4.6675942,-0.0013 -7.0291538,6.524341 -7.2595426,10.306748 -0.1356513,1.595214 -6.567e-4,3.320193 0.7076669,4.767995 0.5437724,1.100993 1.6074083,2.057488 2.8950829,2.0598935 2.632431,-0.00841 4.462054,-3.0666725 5.6056939,-5.0878795 z m -3.7351592,-6.568659 c 0.3387405,-0.355148 1.0506052,-0.917031 1.5250723,-0.738255 0.3101847,0.144663 0.7861611,1.056867 0.915492,1.303574 -0.7170497,1.681794 -1.5667773,3.310122 -2.6292322,4.747151 -0.2482463,0.382299 -1.0703895,1.40278 -1.4927954,1.500641 -0.6761517,-1.828159 0.2930888,-5.432895 1.6814633,-6.813111 z m 0,0"
       style="fill:#ffffff;fill-opacity:1;fill-rule:nonzero;stroke:none"
       aria-label="a"
       transform="matrix(1.2989298,0.30093039,-0.30093039,1.2989298,340.24307,848.8136)" />
    <path
       id="path18"
       d="M 8.1985076,2.5898134 C 8.8834053,1.673558 9.1675885,-0.62931574 8.6871853,-1.671722 8.5486937,-1.9730867 8.3588989,-2.1510789 8.1548218,-2.4017978 7.8277292,-6.56733 7.8279068,-10.797133 7.8817182,-14.984597 l -0.00454,-1.619261 c 1.0568681,-0.04138 2.0556206,-0.09024 3.0656668,-0.04312 0.236945,-0.005 1.110502,9.56e-4 1.28219,-0.04787 1.130252,-0.244624 1.699068,-1.636591 1.551911,-2.789761 -0.105804,-0.923367 -0.769518,-1.918444 -1.671969,-1.975364 -0.284931,0.01064 -0.532004,0.0025 -0.815441,0.0015 -1.110502,-9.55e-4 -2.2153566,0.04607 -3.3202113,0.09311 0.046612,-1.281861 0.1367277,-2.534499 0.2313257,-3.822008 0.150383,-1.44575 0.2936248,-2.927863 0.876723,-4.247103 0.6545405,-0.128542 2.0521546,0.48826 2.5869976,0.923275 0.676981,0.524176 1.57746,1.147971 2.440051,0.963464 1.166944,-0.346244 1.88453,-1.884501 1.695362,-3.078516 -0.05764,-0.562721 -0.347409,-1.2498 -0.867134,-1.434754 -0.246745,-0.102606 -0.429727,-0.149756 -0.624003,-0.292879 -1.152214,-0.963345 -2.886242,-1.81243 -4.4211523,-1.820676 -2.8838508,0.0074 -4.220898,2.87205 -4.7539774,5.272899 -0.5682775,2.490845 -0.7604615,5.089108 -0.8581665,7.687699 l -0.7689492,0.0075 c -0.094479,-3.28e-4 -0.5763459,-0.204047 -0.6708249,-0.204375 -0.3370708,-0.04333 -0.7212914,0.09633 -1.0068797,0.295927 -0.2900702,0.234464 -0.5223533,0.570878 -0.6848977,0.916255 -0.56035996,1.050414 -0.420822,2.722472 0.5317968,3.400228 0.519067,0.373912 1.2036663,0.379201 1.83015,0.377019 l 0.7093396,-0.0033 c 0.00308,2.457948 0.00765,4.904273 0.06021,7.3449508 0.055726,2.7837246 0.1463221,5.571931 0.4258759,8.36079479 C 4.8543045,0.38771483 4.9489931,1.5814012 5.52271,2.5412803 5.8566436,3.0686236 6.3441578,3.3203284 6.8645393,3.3163244 7.39505,3.3254344 7.8770662,3.0683838 8.1985098,2.5898334 Z m 0,0"
       style="fill:#ffffff;fill-opacity:1;fill-rule:nonzero;stroke:none"
       aria-label="f"
       transform="matrix(1.3224539,-0.1699807,0.1699807,1.3224539,370.78013,854.08587)" />
    <path
       id="path19"
       d="m 11.711078,-8.7310909 c 1.005854,-0.5408064 1.05376,-2.1243681 0.728053,-3.2172021 -0.202418,-0.633207 -0.773913,-1.206555 -1.397674,-1.356548 -0.43578,-0.08299 -0.867281,0.154057 -1.31024,0.20804 -1.5348263,0.227348 -3.4410772,-0.11017 -4.5023351,-1.209472 1.1667554,0.100251 2.3115984,0.102104 3.4060685,-0.19745 1.6433426,-0.423179 3.3206476,-1.226559 4.3280586,-2.581374 1.107112,-1.439822 1.439048,-3.603024 0.996896,-5.381706 -0.60406,-2.687479 -2.735312,-3.935097 -5.0773037,-3.935529 -2.0634629,0.0031 -4.32167,1.005662 -5.8131829,2.931637 -1.8236088,2.408854 -2.4431059,5.850307 -1.9625909,8.829076 0.7608002,4.268733 3.8849697,6.4466459 8.0118954,6.44037 0.9140441,0.0058 1.7813251,-0.1482597 2.5923551,-0.5298419 z M 5.1306764,-19.146837 c 0.7282123,-1.536878 2.1727458,-2.451712 3.8945861,-2.459722 0.4831748,0.0013 1.1481175,0.05416 1.5342355,0.43432 -2.96e-4,0.330834 -0.183661,0.673127 -0.436667,0.909508 -0.7149005,0.575105 -1.5782363,0.959961 -2.4978224,1.117292 -0.799611,0.144571 -1.6691994,0.09398 -2.4943322,-0.0014 z m 0,0"
       style="fill:#ffffff;fill-opacity:1;fill-rule:nonzero;stroke:none"
       aria-label="e"
       transform="matrix(1.2274918,-0.52061671,0.52061671,1.2274918,397.2328,849.8612)" />
    <path
       id="path20"
       d="M 10.279202,3.5046805 C 10.76154,2.9303542 11.226166,1.1015896 11.080371,0.38232005 10.946426,-0.2963923 10.610043,-1.0073878 10.127243,-1.4893752 9.6920822,-6.5835428 9.6456339,-11.703232 9.6426174,-16.80175 c -4.255e-4,-0.6737 -0.00839,-1.338427 0.048255,-2.025414 l 1.5900066,-0.271503 c 1.247602,-0.191789 2.548696,-0.246833 3.842992,-0.09334 0.52332,0.08753 1.151764,-0.241669 1.479059,-0.68605 0.919455,-1.094809 0.823816,-2.766669 -0.134249,-3.739617 -0.432182,-0.378264 -1.971258,-0.477175 -2.544459,-0.468863 -1.438927,5.01e-4 -2.845533,0.181179 -4.234541,0.468456 l 0.1558369,-6.617859 c -0.00431,-0.04953 0.044132,-0.161879 0.048794,-0.203874 0.087138,-0.814407 -0.00843,-1.72104 -0.4786777,-2.345522 -0.3449684,-0.427444 -0.737293,-0.634505 -1.1604634,-0.622619 -1.6384886,0.0012 -2.0668694,1.768624 -2.0627938,3.05752 l -0.1456999,7.498658 c -0.9145194,0.196063 -1.8168404,0.341158 -2.7730045,0.441033 -0.2455184,-0.144981 -0.4867249,-0.240431 -0.7282812,-0.244355 -0.9647881,8.13e-4 -1.83292525,1.016295 -1.91967563,2.12179 -0.037607,0.810096 0.0963766,1.871421 0.71988423,2.440972 0.432182,0.378264 1.0560017,0.473676 1.5796716,0.469676 1.0566636,-0.09199 2.1165518,-0.242483 3.1240342,-0.421686 l 5.39e-4,1.82154 c -0.00312,4.741389 0.037191,9.5039492 0.3793505,14.1986434 0.1505318,1.44250128 0.1944648,2.90260041 0.6227983,4.2876464 0.3410819,1.0516141 1.263951,1.8113653 2.1207029,1.8116395 0.3826132,-3.78e-5 0.8154572,-0.187439 1.1065065,-0.5704398 z m 0,0"
       style="fill:#ffffff;fill-opacity:1;fill-rule:nonzero;stroke:none"
       aria-label="t"
       transform="matrix(1.0210246,-0.85748853,0.85748853,1.0210246,422.92133,837.86093)" />
    <path
       id="path21"
       d="m 13.628904,-1.666194 c 0.527778,-4.1458655 0.207327,-8.3199823 0.146754,-12.441407 0.0092,-2.255619 0.05435,-4.563147 0.0051,-6.822172 -0.0062,-1.345603 -0.201064,-3.84553 -2.069938,-3.843986 -1.05631,-0.0028 -1.595556,1.11384 -1.8284826,1.929024 -0.8056658,2.305511 -1.5690791,4.611134 -2.7415072,6.72391 -0.2778001,0.5778 -1.1365381,2.060868 -1.7578234,2.247732 -0.5706534,-0.521547 -0.6854451,-2.582483 -0.6800227,-3.401521 1.806e-4,-1.293582 0.146654,-2.599777 0.3905812,-3.886213 -0.00636,-0.05202 0.1373095,-0.301905 0.1374215,-0.344157 0.4747249,-1.298824 0.2000189,-3.113169 -1.0107829,-3.688417 -0.1882091,-0.114256 -0.4253691,-0.153888 -0.6203889,-0.151155 -0.8710582,9.4e-4 -1.5886332,0.954598 -1.818827,1.964802 -0.4242735,1.883996 -0.6339916,3.752309 -0.6811747,5.611303 -0.050364,1.832984 0.087817,3.653466 0.7268881,5.338769 0.619872,1.571495 1.8209497,3.3622943 3.7418435,3.354388 2.1548727,0.00572 3.6950716,-2.294597 4.5933291,-3.972573 0.05802,2.632823 0.122517,5.2754128 -0.04049,7.9141492 -0.09475,2.6356674 -0.2792383,4.79656631 -3.1192014,5.75109578 C 5.9514415,0.96236351 4.855612,1.1544697 3.7346688,1.0117378 3.6924164,1.0116257 3.5466839,0.81297654 3.5045435,0.77061207 3.1575409,0.48042326 2.6867382,0.30041318 2.2057194,0.29588723 2.0627199,0.29225776 1.8675881,0.33724315 1.730951,0.38563388 1.3534124,0.57964506 1.0109792,1.0175149 0.87333363,1.4461773 0.42791217,2.7255779 1.3917177,4.5189986 2.6444358,5.2211157 3.3160604,5.6616751 4.2194911,5.709574 5.0385291,5.7149965 10.222626,5.7092443 12.962695,3.2041007 13.628904,-1.666194 Z m 0,0"
       style="fill:#ffffff;fill-opacity:1;fill-rule:nonzero;stroke:none"
       aria-label="y"
       transform="matrix(0.73665535,-1.111358,1.111358,0.73665535,446.43693,816.26853)" />
    <path
       id="path22"
       d="M 5.2005335,-1.6579335 C 5.3304645,-2.2350232 4.9641899,-3.1237263 4.4090832,-3.4252803 4.2125055,-5.2452596 4.1404708,-7.1004978 4.1685582,-8.9565146 5.1723188,-8.9903808 6.1769603,-9.0873482 7.1613808,-9.138895 7.5425287,-9.15969 7.8807964,-9.2267864 8.2324425,-9.16094 c 0.2624644,0.062425 0.6967566,-0.1796136 0.8567632,-0.416776 0.450518,-0.624846 0.4946886,-1.294539 0.1367116,-1.998138 -0.2042393,-0.33583 -0.7240871,-0.512841 -1.1313156,-0.494586 -1.2780461,0.03874 -2.5443734,0.173406 -3.8661807,0.228948 0.089427,-1.728933 0.2377548,-3.467926 0.3322624,-5.24902 0.2263245,9.83e-4 0.4417088,0.0062 0.632672,0.04583 1.743295,-0.004 3.4765306,-0.06681 5.1624816,0.139537 0.310425,0.05657 0.693335,-0.09043 0.868482,-0.320853 0.50776,-0.671927 0.550373,-1.541863 0.08299,-2.203463 -0.131959,-0.212947 -0.396083,-0.312392 -0.613127,-0.354596 -1.8247529,-0.240931 -3.6564511,-0.140276 -5.4754471,-0.170023 -0.4021476,-0.03391 -0.8135759,-0.02659 -1.214064,-0.02348 -0.1118408,-0.09514 -0.2632429,-0.162547 -0.4003857,-0.160109 -0.1346023,-0.02364 -0.2633453,6.77e-4 -0.4165092,0.05947 -0.084982,0.0075 -0.1716231,-0.02198 -0.2566049,-0.01446 -0.2405838,-0.07082 -0.535869,-0.12065 -0.7437343,-0.04085 -0.7363178,0.207353 -1.0112175,1.191569 -0.8560249,1.922806 0.1182741,0.569673 0.5302763,0.988928 1.0544265,1.013656 l 0.01094,-0.0042 c -0.046916,1.02222 -0.1350521,2.035159 -0.2122482,3.043898 -0.034992,0.791695 -0.097724,1.543829 -0.125976,2.320384 -0.3155063,-0.0044 -0.7566412,0.415998 -0.8763081,0.725542 -0.34043898,0.846192 -0.2073317,1.9122755 0.6751025,2.150933 0.047961,-0.00586 0.086641,0.029502 0.1497426,0.030383 l -0.00258,1.4319886 c 0.030138,1.5826121 0.079616,3.1829049 0.2906573,4.7462793 0.1391714,0.7875978 0.4024764,2.1928297 1.3084507,2.46010813 l 0.4231472,0.0886079 C 4.6678409,-0.13541068 5.0436412,-1.020283 5.2005335,-1.6579335 Z m 0,0"
       style="fill:#ffffff;fill-opacity:1;fill-rule:nonzero;stroke:none"
       aria-label="F"
       transform="matrix(1.2447607,0.47785828,-0.47785828,1.2447607,348.13667,776.3208)" />
    <path
       id="path23"
       d="m 6.8139793,-6.96251 c 1.7473714,-1.8840054 1.9735295,-4.898995 0.5792479,-7.042664 -0.490997,-0.779321 -1.4206972,-1.510974 -2.3725056,-1.51555 -0.1770802,0.0095 -0.3191131,0.02184 -0.4414687,0.08272 -0.073782,0.0412 -0.1177462,0.0025 -0.1392673,-0.02274 -0.1481842,-0.05871 -0.2865297,-0.09314 -0.4276408,-0.09252 -1.3167294,0.0019 -2.6121898,1.521883 -3.02687493,2.605903 -0.3722629,0.993325 -0.46168356,2.126521 -0.38017524,3.1791636 0.11751053,1.9371221 1.14318357,4.1339903 3.36499157,4.1329858 1.0461897,2.687e-4 2.1464675,-0.5359327 2.8436931,-1.3272874 z M 3.5385406,-8.6551071 C 2.9541005,-8.9951048 2.7886531,-10.32474 2.8089176,-11.028452 c 0.00337,-0.340634 0.035634,-0.749519 0.2016357,-1.065565 0.1478659,-0.235191 0.3873475,-0.439642 0.6077718,-0.551555 0.2379562,0.112819 0.4749906,0.23732 0.7086393,0.255757 0.2327268,0.03012 0.4297862,-0.08364 0.6151632,-0.198316 0.052261,-0.06641 0.1976796,0.02735 0.2892953,0.05809 0.3978229,0.172454 0.6431705,0.638511 0.7978243,1.062146 0.3563555,1.144862 -0.2888944,2.4693013 -1.414079,2.8742304 -0.1457204,0.059032 -0.3246443,0.091934 -0.5008027,0.089788 -0.2004451,0.00769 -0.395359,-0.054708 -0.5758249,-0.151235 z m 0,0"
       style="fill:#ffffff;fill-opacity:1;fill-rule:nonzero;stroke:none"
       aria-label="o"
       transform="matrix(1.3292014,-0.10488747,0.10488747,1.3292014,368.75907,782.46147)" />
  </g>
  <path
     id="path24"
     d="m 3.459771,-7.15515 c 0.2475043,-1.0536407 0.4352941,-2.1876505 0.9740791,-3.109133 0.2125272,-0.350995 0.562911,-0.613041 0.8843873,-0.8519 0.3672175,-0.223291 0.7731895,-0.463416 1.2128287,-0.626031 0.13087,0.05655 0.2646001,0.08705 0.407544,0.08166 0.8062017,0.0042 1.2369982,-1.18224 0.9308271,-2.09106 -0.1829429,-0.494594 -0.6644807,-0.958708 -1.2235491,-0.95683 -1.1019364,2.62e-4 -3.0552479,1.320009 -3.692502,2.177957 0.00954,-0.230933 0.00924,-0.46822 0.03561,-0.660398 -6.332e-4,-0.04225 0.049562,-0.163271 0.052422,-0.189318 0.2090556,-0.799521 0.0093,-1.765195 -0.780373,-1.967897 -0.6327565,-0.143293 -1.1575463,0.410667 -1.33324031,1.05041 -0.11977849,0.466625 -0.12552064,0.951045 -0.14396988,1.455159 -0.0829889,1.620023 -0.17296454,3.2076454 -0.0580547,4.8019489 0.0809587,0.8471832 0.37883329,2.5037558 1.48076969,2.5034936 0.7801544,0.00131 1.0768933,-1.0205631 1.2532205,-1.6180585 z m 0,0"
     style="fill:#ffffff;fill-opacity:1;fill-rule:nonzero;stroke:none"
     aria-label="r"
     transform="matrix(1.1203591,-0.72289227,0.72289227,1.1203591,388.82747,778.69707)" />
  <g
     id="layer-MC5"
     inkscape:groupmode="layer"
     inkscape:label="Layer 9">
    <path
       id="path25"
       d="m 0,0 c -0.842,2.248 -3.107,6.986 -11.962,12.197 -3.81,2.242 -25.782,14.541 -49.697,5.102 -4.362,-1.722 -12.601,-5.095 -19.028,-13.59 -2.027,-2.68 -7.532,-10.167 -7.433,-20.387 0.068,-6.918 2.674,-12.066 4.197,-14.954 10.036,-19.027 23.358,-35.377 24.598,-36.885 19.16,-23.315 28.286,-33.967 35.852,-50.509 1.645,-3.596 3.121,-7.262 4.253,-11.917 1.243,-5.106 4.741,-20.428 -2.451,-37.15 -1.867,-4.341 -6.389,-14.483 -17.494,-22.134 -4.501,-3.1 -15.897,-9.797 -31.121,-8.269 -18.527,1.859 -29.379,14.559 -32.455,18.531 -6.584,8.501 -8.251,16.666 -9.956,25.018 -0.486,2.378 -1.078,6.024 0.149,10.228 0.695,2.38 1.827,6.258 5.496,7.988 3.121,1.472 7.257,1.002 9.702,-1.021 1.757,-1.453 1.682,-2.916 3.915,-4.255 0.259,-0.156 2.465,-1.446 4.766,-1.192 4.805,0.531 7.775,7.551 8.68,12.085 0.839,4.202 0.199,7.736 -0.982,12.227 -3.295,12.524 -8.068,22.099 -10.813,27.311 -2.496,4.74 -6.002,10.975 -10.656,18.079 1.066,-4.535 2.222,-12.454 -0.431,-20.901 -1.327,-4.227 -3.127,-7.058 -3.53,-7.68 -3.304,-5.098 -7.336,-7.792 -8.652,-8.728 -11.276,-8.024 -18.594,-26.071 -19.881,-29.244 -5.354,-13.203 -5.551,-24.972 -5.408,-30.042 0.626,-22.178 11.198,-37.939 15.349,-43.499 23.171,-31.038 60.938,-31.807 63.219,-31.815 3.914,-0.015 33.83,0.356 56.819,23.767 14.512,14.778 18.906,31.243 21.009,39.539 2.328,9.179 6.501,31.511 -2.548,54.615 -3.612,9.224 -8.779,17.16 -12.644,23.095 -4.85,7.449 -8.821,12.287 -16.34,21.446 -15.709,19.137 -24.34,29.107 -24.34,29.107 -2.277,2.63 -3.584,4.113 -5.107,6.638 -1.816,3.012 -7.658,12.702 -5.276,25.192 0,0 2.73,14.315 17.532,23.319 1.121,0.682 5.937,3.612 7.148,2.383 0.96,-0.974 -0.696,-4.198 -0.878,-4.551 -1.1,-2.141 -2.348,-2.94 -3.207,-3.96 -2.722,-3.233 -1.728,-8.915 -0.607,-11.862 2.247,-5.904 8.519,-10.064 15.054,-9.826 9.357,0.341 13.761,9.499 14.443,10.917 C -0.326,-14.774 2.908,-7.766 0,0"
       style="fill:#100f0d;fill-opacity:1;fill-rule:nonzero;stroke:none"
       transform="matrix(1.3333333,0,0,-1.3333333,452.89253,528.33093)"
       clip-path="url(#clipPath26)" />
  </g>
  <g
     id="layer-MC6"
     inkscape:groupmode="layer"
     inkscape:label="Layer 6">
    <path
       id="path27"
       d="m 0,0 c -6.509,0 -12.266,4.06 -14.326,10.104 -2.683,7.872 -2.565,15.362 0.341,21.662 2.271,4.921 5.62,7.949 7.413,9.316 4.392,3.349 10.018,5.193 15.84,5.193 3.132,0 6.186,-0.521 9.076,-1.549 C 19.853,44.189 33.13,39.164 34.415,28.093 35.839,15.822 21.253,7.212 14.916,4.081 10.975,2.133 6.708,0.815 2.235,0.163 1.496,0.055 0.744,0 0,0"
       style="fill:#100f0d;fill-opacity:1;fill-rule:nonzero;stroke:none"
       transform="matrix(1.3333333,0,0,-1.3333333,484.4972,332.56027)"
       clip-path="url(#clipPath28)" />
    <path
       id="path29"
       d="m 0,0 h -0.001 c -6.367,0 -12.53,-2.027 -17.355,-5.706 -1.979,-1.508 -5.671,-4.847 -8.167,-10.256 -3.18,-6.893 -3.332,-15.025 -0.438,-23.516 2.406,-7.056 9.113,-11.797 16.692,-11.797 0.865,0 1.739,0.063 2.598,0.189 4.732,0.69 9.249,2.086 13.425,4.15 6.812,3.366 22.483,12.691 20.876,26.543 C 26.172,-7.824 11.573,-2.284 9.913,-1.694 6.754,-0.57 3.418,0 0,0 m -0.001,-5 c 2.807,0 5.61,-0.469 8.239,-1.405 0.817,-0.29 13.306,-4.921 14.425,-14.565 1.375,-11.848 -15.686,-20.279 -18.124,-21.483 -4.191,-2.072 -8.297,-3.156 -11.932,-3.686 -0.628,-0.091 -1.256,-0.136 -1.876,-0.136 -5.339,0 -10.219,3.306 -11.959,8.41 -1.866,5.474 -2.991,12.794 0.245,19.808 2.268,4.915 5.758,7.689 6.658,8.375 4.105,3.13 9.221,4.682 14.324,4.682"
       style="fill:#100f0d;fill-opacity:1;fill-rule:nonzero;stroke:none"
       transform="matrix(1.3333333,0,0,-1.3333333,496.8548,267.52667)"
       clip-path="url(#clipPath30)" />
    <path
       id="path31"
       d="m 0,0 c -3.464,0 -6.887,1.191 -9.64,3.354 -4.55,3.574 -10.283,9.73 -11.749,18.758 -0.432,2.665 -1.578,9.734 2.606,15.304 3.462,4.61 10.011,7.363 17.518,7.363 8.627,0 16.327,-3.677 20.092,-9.597 C 24.478,26.301 19.97,15.69 19.009,13.654 16.532,8.401 12.238,4.196 6.59,1.494 4.517,0.503 2.299,0 0,0"
       style="fill:#100f0d;fill-opacity:1;fill-rule:nonzero;stroke:none"
       transform="matrix(1.3333333,0,0,-1.3333333,430.45947,311.80693)"
       clip-path="url(#clipPath32)" />
    <path
       id="path33"
       d="m 0,0 c 5.727,-2.428 12.502,-0.702 16.195,4.303 3.526,4.78 5.319,10.578 4.873,16.438 C 20.494,28.28 15.955,39.326 5.587,41.351 -5.132,43.444 -15.686,34.649 -17.248,25.095 -18.6,16.827 -12.855,10.201 -10.669,7.679 -7.345,3.845 -3.476,1.473 0,0"
       style="fill:#100f0d;fill-opacity:1;fill-rule:nonzero;stroke:none"
       transform="matrix(1.3333333,0,0,-1.3333333,369.5384,316.754)"
       clip-path="url(#clipPath34)" />
    <path
       id="path35"
       d="M 0,0 C 6.6,3.424 7.046,14.022 5.106,20.638 4.814,21.633 0.604,35.221 -10.553,35.454 -17.921,35.608 -24.594,29.861 -26.213,22.977 -28.634,12.684 -18.487,5.238 -16.681,3.913 -15.043,2.711 -6.647,-3.449 0,0"
       style="fill:#100f0d;fill-opacity:1;fill-rule:nonzero;stroke:none"
       transform="matrix(1.3333333,0,0,-1.3333333,334.76747,331.64707)"
       clip-path="url(#clipPath36)" />
    <path
       id="path37"
       d="M 0,0 C 6.733,4.996 5.7,17.96 -1.021,24.511 -5.455,28.832 -13.627,31.594 -19.404,27.83 -26.121,23.454 -26.329,12.389 -21.6,5.617 -16.696,-1.407 -6.022,-4.469 0,0"
       style="fill:#100f0d;fill-opacity:1;fill-rule:nonzero;stroke:none"
       transform="matrix(1.3333333,0,0,-1.3333333,293.2372,354.53373)"
       clip-path="url(#clipPath38)" />
    <path
       id="path39"
       d="m 0,0 c 0,0 1.803,-5.291 0,-7.9 -1.85,-2.678 -6.02,-1.324 -6.638,-2.722 -1.776,-4.018 28.709,-24.115 33.61,-18.98 1.844,1.932 -1.79,5.491 0,10.978 2.717,8.328 13.878,8.685 13.879,12.256 C 40.853,0.212 2.945,7.067 0,0"
       style="fill:#100f0d;fill-opacity:1;fill-rule:nonzero;stroke:none"
       transform="matrix(1.3333333,0,0,-1.3333333,460.69813,315.06373)"
       clip-path="url(#clipPath40)" />
  </g>
</svg>
